<svg xmlns="http://www.w3.org/2000/svg" xmlns:xlink="http://www.w3.org/1999/xlink" width="500" zoomAndPan="magnify" viewBox="0 0 375 374.999991" height="500" preserveAspectRatio="xMidYMid meet" version="1.0"><defs><clipPath id="039cd81c74"><path d="M 4.386719 8.773438 L 370.386719 8.773438 L 370.386719 374.773438 L 4.386719 374.773438 Z M 4.386719 8.773438 " clip-rule="nonzero"/></clipPath></defs><g clip-path="url(#039cd81c74)"><path fill="#ffffff" d="M 370.386719 191.773438 C 370.386719 194.765625 370.3125 197.761719 370.164062 200.75 C 370.019531 203.742188 369.796875 206.730469 369.503906 209.710938 C 369.210938 212.691406 368.84375 215.660156 368.40625 218.625 C 367.964844 221.585938 367.453125 224.535156 366.871094 227.472656 C 366.285156 230.410156 365.628906 233.332031 364.902344 236.238281 C 364.175781 239.140625 363.375 242.027344 362.507812 244.894531 C 361.636719 247.761719 360.699219 250.601562 359.6875 253.421875 C 358.679688 256.242188 357.601562 259.035156 356.457031 261.804688 C 355.308594 264.570312 354.097656 267.308594 352.816406 270.015625 C 351.535156 272.722656 350.1875 275.394531 348.777344 278.039062 C 347.367188 280.679688 345.890625 283.285156 344.351562 285.851562 C 342.8125 288.421875 341.207031 290.949219 339.542969 293.441406 C 337.882812 295.929688 336.15625 298.378906 334.371094 300.785156 C 332.589844 303.191406 330.746094 305.550781 328.847656 307.867188 C 326.945312 310.179688 324.992188 312.449219 322.980469 314.667969 C 320.96875 316.886719 318.902344 319.054688 316.785156 321.171875 C 314.667969 323.289062 312.5 325.355469 310.28125 327.367188 C 308.0625 329.378906 305.796875 331.332031 303.480469 333.234375 C 301.164062 335.132812 298.804688 336.976562 296.398438 338.757812 C 293.992188 340.542969 291.546875 342.265625 289.054688 343.929688 C 286.566406 345.59375 284.035156 347.195312 281.464844 348.734375 C 278.898438 350.277344 276.292969 351.75 273.652344 353.164062 C 271.011719 354.574219 268.335938 355.921875 265.628906 357.203125 C 262.921875 358.480469 260.183594 359.695312 257.417969 360.84375 C 254.648438 361.988281 251.855469 363.066406 249.035156 364.074219 C 246.21875 365.082031 243.375 366.023438 240.507812 366.890625 C 237.640625 367.761719 234.757812 368.558594 231.851562 369.289062 C 228.945312 370.015625 226.023438 370.671875 223.085938 371.253906 C 220.148438 371.839844 217.199219 372.351562 214.238281 372.792969 C 211.273438 373.230469 208.304688 373.597656 205.324219 373.890625 C 202.34375 374.183594 199.355469 374.40625 196.367188 374.550781 C 193.375 374.699219 190.382812 374.773438 187.386719 374.773438 C 184.390625 374.773438 181.398438 374.699219 178.40625 374.550781 C 175.414062 374.40625 172.429688 374.183594 169.449219 373.890625 C 166.46875 373.597656 163.496094 373.230469 160.535156 372.792969 C 157.570312 372.351562 154.621094 371.839844 151.683594 371.253906 C 148.746094 370.671875 145.824219 370.015625 142.921875 369.289062 C 140.015625 368.558594 137.128906 367.761719 134.265625 366.890625 C 131.398438 366.023438 128.554688 365.082031 125.734375 364.074219 C 122.914062 363.066406 120.121094 361.988281 117.355469 360.84375 C 114.585938 359.695312 111.851562 358.480469 109.144531 357.203125 C 106.4375 355.921875 103.761719 354.574219 101.121094 353.164062 C 98.480469 351.75 95.875 350.277344 93.304688 348.734375 C 90.734375 347.195312 88.207031 345.59375 85.714844 343.929688 C 83.226562 342.265625 80.777344 340.542969 78.371094 338.757812 C 75.96875 336.976562 73.605469 335.132812 71.292969 333.234375 C 68.976562 331.332031 66.710938 329.378906 64.492188 327.367188 C 62.273438 325.355469 60.101562 323.289062 57.984375 321.171875 C 55.867188 319.054688 53.804688 316.886719 51.792969 314.667969 C 49.78125 312.449219 47.824219 310.179688 45.925781 307.867188 C 44.023438 305.550781 42.183594 303.191406 40.398438 300.785156 C 38.613281 298.378906 36.890625 295.929688 35.226562 293.441406 C 33.5625 290.949219 31.960938 288.421875 30.421875 285.851562 C 28.882812 283.285156 27.40625 280.679688 25.996094 278.039062 C 24.582031 275.394531 23.238281 272.722656 21.957031 270.015625 C 20.675781 267.308594 19.460938 264.570312 18.316406 261.804688 C 17.167969 259.035156 16.09375 256.242188 15.082031 253.421875 C 14.074219 250.601562 13.136719 247.761719 12.265625 244.894531 C 11.398438 242.027344 10.597656 239.140625 9.871094 236.238281 C 9.140625 233.332031 8.488281 230.410156 7.902344 227.472656 C 7.316406 224.535156 6.804688 221.585938 6.367188 218.625 C 5.925781 215.660156 5.5625 212.691406 5.265625 209.710938 C 4.972656 206.730469 4.753906 203.742188 4.605469 200.75 C 4.460938 197.761719 4.386719 194.765625 4.386719 191.773438 C 4.386719 188.777344 4.460938 185.785156 4.605469 182.792969 C 4.753906 179.800781 4.972656 176.816406 5.265625 173.835938 C 5.5625 170.855469 5.925781 167.882812 6.367188 164.921875 C 6.804688 161.957031 7.316406 159.007812 7.902344 156.070312 C 8.488281 153.132812 9.140625 150.210938 9.871094 147.304688 C 10.597656 144.402344 11.398438 141.515625 12.265625 138.648438 C 13.136719 135.785156 14.074219 132.941406 15.082031 130.121094 C 16.09375 127.300781 17.167969 124.507812 18.316406 121.742188 C 19.460938 118.972656 20.675781 116.238281 21.957031 113.53125 C 23.238281 110.820312 24.582031 108.148438 25.996094 105.507812 C 27.40625 102.863281 28.882812 100.261719 30.421875 97.691406 C 31.960938 95.121094 33.5625 92.59375 35.226562 90.101562 C 36.890625 87.613281 38.613281 85.164062 40.398438 82.757812 C 42.183594 80.351562 44.023438 77.992188 45.925781 75.679688 C 47.824219 73.363281 49.78125 71.097656 51.792969 68.875 C 53.804688 66.65625 55.867188 64.488281 57.984375 62.371094 C 60.101562 60.253906 62.273438 58.1875 64.492188 56.179688 C 66.710938 54.167969 68.976562 52.210938 71.292969 50.3125 C 73.605469 48.410156 75.96875 46.570312 78.371094 44.785156 C 80.777344 43 83.226562 41.277344 85.714844 39.613281 C 88.207031 37.949219 90.734375 36.347656 93.304688 34.808594 C 95.875 33.269531 98.480469 31.792969 101.121094 30.378906 C 103.761719 28.96875 106.4375 27.621094 109.144531 26.34375 C 111.851562 25.0625 114.589844 23.847656 117.355469 22.703125 C 120.121094 21.554688 122.914062 20.476562 125.734375 19.46875 C 128.554688 18.460938 131.398438 17.519531 134.265625 16.652344 C 137.128906 15.78125 140.015625 14.984375 142.921875 14.257812 C 145.824219 13.527344 148.746094 12.871094 151.683594 12.289062 C 154.621094 11.703125 157.570312 11.191406 160.535156 10.753906 C 163.496094 10.3125 166.46875 9.945312 169.449219 9.652344 C 172.429688 9.359375 175.414062 9.140625 178.40625 8.992188 C 181.398438 8.84375 184.390625 8.773438 187.386719 8.773438 C 190.382812 8.773438 193.375 8.84375 196.367188 8.992188 C 199.355469 9.140625 202.34375 9.359375 205.324219 9.652344 C 208.304688 9.945312 211.273438 10.3125 214.238281 10.753906 C 217.199219 11.191406 220.148438 11.703125 223.085938 12.289062 C 226.023438 12.871094 228.945312 13.527344 231.851562 14.257812 C 234.757812 14.984375 237.640625 15.78125 240.507812 16.652344 C 243.375 17.519531 246.21875 18.460938 249.035156 19.46875 C 251.855469 20.476562 254.648438 21.554688 257.417969 22.703125 C 260.183594 23.847656 262.921875 25.0625 265.628906 26.34375 C 268.335938 27.621094 271.011719 28.96875 273.652344 30.378906 C 276.292969 31.792969 278.898438 33.269531 281.464844 34.808594 C 284.035156 36.347656 286.566406 37.949219 289.054688 39.613281 C 291.546875 41.277344 293.992188 43 296.398438 44.785156 C 298.804688 46.570312 301.164062 48.410156 303.480469 50.3125 C 305.796875 52.210938 308.0625 54.167969 310.28125 56.179688 C 312.5 58.1875 314.667969 60.253906 316.785156 62.371094 C 318.902344 64.488281 320.96875 66.65625 322.980469 68.875 C 324.992188 71.097656 326.945312 73.363281 328.847656 75.679688 C 330.746094 77.992188 332.589844 80.351562 334.371094 82.757812 C 336.15625 85.164062 337.882812 87.613281 339.542969 90.101562 C 341.207031 92.59375 342.8125 95.121094 344.351562 97.691406 C 345.890625 100.261719 347.367188 102.863281 348.777344 105.507812 C 350.1875 108.148438 351.535156 110.820312 352.816406 113.53125 C 354.097656 116.238281 355.308594 118.972656 356.457031 121.742188 C 357.601562 124.507812 358.679688 127.300781 359.6875 130.121094 C 360.699219 132.941406 361.636719 135.785156 362.507812 138.648438 C 363.375 141.515625 364.175781 144.402344 364.902344 147.304688 C 365.628906 150.210938 366.285156 153.132812 366.871094 156.070312 C 367.453125 159.007812 367.964844 161.957031 368.40625 164.921875 C 368.84375 167.882812 369.210938 170.855469 369.503906 173.835938 C 369.796875 176.816406 370.019531 179.800781 370.164062 182.792969 C 370.3125 185.785156 370.386719 188.777344 370.386719 191.773438 Z M 370.386719 191.773438 " fill-opacity="1" fill-rule="nonzero"/></g><path fill="#ff8c00" d="M 187.5 3.125 C 83.953125 3.125 0 87.078125 0 190.625 C 0 278.484375 60.5 352 142.0625 372.34375 C 141.1875 369.8125 140.625 366.875 140.625 363.234375 L 140.625 331.1875 C 133.015625 331.1875 120.265625 331.1875 117.0625 331.1875 C 104.234375 331.1875 92.828125 325.671875 87.296875 315.421875 C 81.15625 304.03125 80.09375 286.609375 64.875 275.953125 C 60.359375 272.40625 63.796875 268.359375 69 268.90625 C 78.609375 271.625 86.578125 278.21875 94.078125 288 C 101.546875 297.796875 105.0625 300.015625 119.015625 300.015625 C 125.78125 300.015625 135.90625 299.625 145.4375 298.125 C 150.5625 285.109375 159.421875 273.125 170.25 267.46875 C 107.8125 261.046875 78.015625 229.984375 78.015625 187.8125 C 78.015625 169.65625 85.75 152.09375 98.890625 137.296875 C 94.578125 122.609375 89.15625 92.65625 100.546875 81.25 C 128.640625 81.25 145.625 99.46875 149.703125 104.390625 C 163.703125 99.59375 179.078125 96.875 195.234375 96.875 C 211.421875 96.875 226.859375 99.59375 240.890625 104.421875 C 244.921875 99.53125 261.921875 81.25 290.078125 81.25 C 301.515625 92.671875 296.03125 122.75 291.671875 137.40625 C 304.734375 152.171875 312.421875 169.6875 312.421875 187.8125 C 312.421875 229.953125 282.671875 261 220.328125 267.453125 C 237.484375 276.40625 250 301.5625 250 320.515625 L 250 363.234375 C 250 364.859375 249.640625 366.03125 249.453125 367.421875 C 322.515625 341.8125 375 272.4375 375 190.625 C 375 87.078125 291.046875 3.125 187.5 3.125 Z M 187.5 3.125 " fill-opacity="1" fill-rule="nonzero"/></svg>