<svg xmlns="http://www.w3.org/2000/svg" xmlns:xlink="http://www.w3.org/1999/xlink" width="500" zoomAndPan="magnify" viewBox="0 0 375 374.999991" height="500" preserveAspectRatio="xMidYMid meet" version="1.0"><defs><clipPath id="fd34faa484"><path d="M 32.621094 32.621094 L 342.371094 32.621094 L 342.371094 342.371094 L 32.621094 342.371094 Z M 32.621094 32.621094 " clip-rule="nonzero"/></clipPath><clipPath id="2438372be3"><path d="M 0 0 L 375 0 L 375 374.25 L 0 374.25 Z M 0 0 " clip-rule="nonzero"/></clipPath></defs><g clip-path="url(#fd34faa484)"><path fill="#ffffff" d="M 342.371094 187.496094 C 342.371094 190.03125 342.308594 192.5625 342.183594 195.09375 C 342.058594 197.625 341.875 200.152344 341.625 202.675781 C 341.375 205.199219 341.066406 207.714844 340.695312 210.21875 C 340.324219 212.726562 339.890625 215.222656 339.394531 217.710938 C 338.898438 220.195312 338.34375 222.667969 337.730469 225.128906 C 337.113281 227.585938 336.4375 230.027344 335.703125 232.453125 C 334.964844 234.878906 334.171875 237.285156 333.316406 239.671875 C 332.464844 242.058594 331.550781 244.421875 330.582031 246.761719 C 329.613281 249.105469 328.585938 251.421875 327.5 253.714844 C 326.417969 256.003906 325.277344 258.269531 324.082031 260.503906 C 322.886719 262.738281 321.640625 264.941406 320.335938 267.117188 C 319.03125 269.292969 317.675781 271.433594 316.269531 273.539062 C 314.859375 275.648438 313.402344 277.71875 311.890625 279.753906 C 310.382812 281.789062 308.824219 283.789062 307.214844 285.746094 C 305.609375 287.707031 303.953125 289.625 302.25 291.503906 C 300.546875 293.382812 298.800781 295.214844 297.007812 297.007812 C 295.214844 298.800781 293.382812 300.546875 291.503906 302.25 C 289.625 303.953125 287.707031 305.609375 285.746094 307.214844 C 283.789062 308.824219 281.789062 310.382812 279.753906 311.890625 C 277.71875 313.402344 275.648438 314.859375 273.539062 316.269531 C 271.433594 317.675781 269.292969 319.03125 267.117188 320.335938 C 264.941406 321.640625 262.738281 322.886719 260.503906 324.082031 C 258.269531 325.277344 256.003906 326.417969 253.714844 327.5 C 251.421875 328.585938 249.105469 329.613281 246.761719 330.582031 C 244.421875 331.550781 242.058594 332.464844 239.671875 333.316406 C 237.285156 334.171875 234.878906 334.964844 232.453125 335.703125 C 230.027344 336.4375 227.585938 337.113281 225.128906 337.730469 C 222.667969 338.34375 220.195312 338.898438 217.710938 339.394531 C 215.222656 339.890625 212.726562 340.324219 210.21875 340.695312 C 207.714844 341.066406 205.199219 341.375 202.675781 341.625 C 200.152344 341.875 197.625 342.058594 195.09375 342.183594 C 192.5625 342.308594 190.03125 342.371094 187.496094 342.371094 C 184.960938 342.371094 182.429688 342.308594 179.894531 342.183594 C 177.363281 342.058594 174.835938 341.875 172.316406 341.625 C 169.792969 341.375 167.277344 341.066406 164.769531 340.695312 C 162.261719 340.324219 159.765625 339.890625 157.28125 339.394531 C 154.796875 338.898438 152.324219 338.34375 149.863281 337.730469 C 147.40625 337.113281 144.964844 336.4375 142.539062 335.703125 C 140.113281 334.964844 137.707031 334.171875 135.320312 333.316406 C 132.933594 332.464844 130.570312 331.550781 128.226562 330.582031 C 125.886719 329.613281 123.570312 328.585938 121.277344 327.5 C 118.988281 326.417969 116.722656 325.277344 114.488281 324.082031 C 112.253906 322.886719 110.046875 321.640625 107.875 320.335938 C 105.699219 319.03125 103.558594 317.675781 101.453125 316.269531 C 99.34375 314.859375 97.273438 313.402344 95.238281 311.890625 C 93.199219 310.382812 91.203125 308.824219 89.242188 307.214844 C 87.285156 305.609375 85.367188 303.953125 83.488281 302.25 C 81.609375 300.546875 79.773438 298.800781 77.984375 297.007812 C 76.191406 295.214844 74.441406 293.382812 72.742188 291.503906 C 71.039062 289.625 69.382812 287.707031 67.777344 285.746094 C 66.167969 283.789062 64.609375 281.789062 63.097656 279.753906 C 61.589844 277.71875 60.128906 275.648438 58.722656 273.539062 C 57.3125 271.433594 55.957031 269.292969 54.65625 267.117188 C 53.351562 264.941406 52.101562 262.738281 50.90625 260.503906 C 49.714844 258.269531 48.574219 256.003906 47.492188 253.714844 C 46.40625 251.421875 45.378906 249.105469 44.410156 246.761719 C 43.441406 244.421875 42.527344 242.058594 41.675781 239.671875 C 40.820312 237.285156 40.023438 234.878906 39.289062 232.453125 C 38.554688 230.027344 37.878906 227.585938 37.261719 225.128906 C 36.644531 222.667969 36.089844 220.195312 35.597656 217.710938 C 35.101562 215.222656 34.667969 212.726562 34.296875 210.21875 C 33.925781 207.714844 33.613281 205.199219 33.367188 202.675781 C 33.117188 200.152344 32.929688 197.625 32.808594 195.09375 C 32.683594 192.5625 32.621094 190.03125 32.621094 187.496094 C 32.621094 184.960938 32.683594 182.429688 32.808594 179.894531 C 32.929688 177.363281 33.117188 174.835938 33.367188 172.316406 C 33.613281 169.792969 33.925781 167.277344 34.296875 164.769531 C 34.667969 162.261719 35.101562 159.765625 35.597656 157.28125 C 36.089844 154.796875 36.644531 152.324219 37.261719 149.863281 C 37.878906 147.40625 38.554688 144.964844 39.289062 142.539062 C 40.023438 140.113281 40.820312 137.707031 41.675781 135.320312 C 42.527344 132.933594 43.441406 130.570312 44.410156 128.226562 C 45.378906 125.886719 46.40625 123.570312 47.492188 121.277344 C 48.574219 118.988281 49.714844 116.722656 50.90625 114.488281 C 52.101562 112.253906 53.351562 110.046875 54.65625 107.875 C 55.957031 105.699219 57.3125 103.558594 58.722656 101.453125 C 60.128906 99.34375 61.589844 97.273438 63.097656 95.238281 C 64.609375 93.199219 66.167969 91.203125 67.777344 89.242188 C 69.382812 87.285156 71.039062 85.367188 72.742188 83.488281 C 74.441406 81.609375 76.191406 79.773438 77.984375 77.984375 C 79.773438 76.191406 81.609375 74.441406 83.488281 72.742188 C 85.367188 71.039062 87.285156 69.382812 89.242188 67.777344 C 91.203125 66.167969 93.199219 64.609375 95.238281 63.097656 C 97.273438 61.589844 99.34375 60.128906 101.453125 58.722656 C 103.558594 57.3125 105.699219 55.957031 107.875 54.65625 C 110.046875 53.351562 112.253906 52.101562 114.488281 50.90625 C 116.722656 49.714844 118.988281 48.574219 121.277344 47.492188 C 123.570312 46.40625 125.886719 45.378906 128.226562 44.410156 C 130.570312 43.441406 132.933594 42.527344 135.320312 41.675781 C 137.707031 40.820312 140.113281 40.023438 142.539062 39.289062 C 144.964844 38.554688 147.40625 37.878906 149.863281 37.261719 C 152.324219 36.644531 154.796875 36.089844 157.28125 35.597656 C 159.765625 35.101562 162.261719 34.667969 164.769531 34.296875 C 167.277344 33.925781 169.792969 33.613281 172.316406 33.367188 C 174.835938 33.117188 177.363281 32.929688 179.894531 32.808594 C 182.429688 32.683594 184.960938 32.621094 187.496094 32.621094 C 190.03125 32.621094 192.5625 32.683594 195.09375 32.808594 C 197.625 32.929688 200.152344 33.117188 202.675781 33.367188 C 205.199219 33.613281 207.714844 33.925781 210.21875 34.296875 C 212.726562 34.667969 215.222656 35.101562 217.710938 35.597656 C 220.195312 36.089844 222.667969 36.644531 225.128906 37.261719 C 227.585938 37.878906 230.027344 38.554688 232.453125 39.289062 C 234.878906 40.023438 237.285156 40.820312 239.671875 41.675781 C 242.058594 42.527344 244.421875 43.441406 246.761719 44.410156 C 249.105469 45.378906 251.421875 46.40625 253.714844 47.492188 C 256.003906 48.574219 258.269531 49.714844 260.503906 50.90625 C 262.738281 52.101562 264.941406 53.351562 267.117188 54.65625 C 269.292969 55.957031 271.433594 57.3125 273.539062 58.722656 C 275.648438 60.128906 277.71875 61.589844 279.753906 63.097656 C 281.789062 64.609375 283.789062 66.167969 285.746094 67.777344 C 287.707031 69.382812 289.625 71.039062 291.503906 72.742188 C 293.382812 74.441406 295.214844 76.191406 297.007812 77.984375 C 298.800781 79.773438 300.546875 81.609375 302.25 83.488281 C 303.953125 85.367188 305.609375 87.285156 307.214844 89.242188 C 308.824219 91.203125 310.382812 93.199219 311.890625 95.238281 C 313.402344 97.273438 314.859375 99.34375 316.269531 101.453125 C 317.675781 103.558594 319.03125 105.699219 320.335938 107.875 C 321.640625 110.046875 322.886719 112.253906 324.082031 114.488281 C 325.277344 116.722656 326.417969 118.988281 327.5 121.277344 C 328.585938 123.570312 329.613281 125.886719 330.582031 128.226562 C 331.550781 130.570312 332.464844 132.933594 333.316406 135.320312 C 334.171875 137.707031 334.964844 140.113281 335.703125 142.539062 C 336.4375 144.964844 337.113281 147.40625 337.730469 149.863281 C 338.34375 152.324219 338.898438 154.796875 339.394531 157.28125 C 339.890625 159.765625 340.324219 162.261719 340.695312 164.769531 C 341.066406 167.277344 341.375 169.792969 341.625 172.316406 C 341.875 174.835938 342.058594 177.363281 342.183594 179.894531 C 342.308594 182.429688 342.371094 184.960938 342.371094 187.496094 Z M 342.371094 187.496094 " fill-opacity="1" fill-rule="nonzero"/></g><g clip-path="url(#2438372be3)"><path fill="#ff8c00" d="M 187.5 0.113281 C 184.429688 0.117188 181.363281 0.195312 178.296875 0.347656 C 175.230469 0.503906 172.167969 0.730469 169.113281 1.035156 C 166.058594 1.339844 163.015625 1.71875 159.976562 2.171875 C 156.941406 2.625 153.917969 3.152344 150.90625 3.753906 C 147.898438 4.355469 144.902344 5.03125 141.925781 5.777344 C 138.949219 6.527344 135.992188 7.347656 133.054688 8.238281 C 130.117188 9.132812 127.203125 10.097656 124.316406 11.132812 C 121.425781 12.167969 118.5625 13.277344 115.726562 14.453125 C 112.890625 15.628906 110.085938 16.875 107.3125 18.1875 C 104.535156 19.5 101.796875 20.882812 99.089844 22.328125 C 96.382812 23.777344 93.710938 25.292969 91.082031 26.871094 C 88.449219 28.449219 85.855469 30.09375 83.304688 31.796875 C 80.75 33.503906 78.242188 35.269531 75.777344 37.101562 C 73.3125 38.929688 70.894531 40.816406 68.519531 42.765625 C 66.148438 44.714844 63.824219 46.71875 61.550781 48.777344 C 59.273438 50.839844 57.050781 52.957031 54.882812 55.128906 C 52.710938 57.296875 50.59375 59.519531 48.53125 61.792969 C 46.46875 64.066406 44.464844 66.390625 42.519531 68.765625 C 40.570312 71.136719 38.679688 73.554688 36.851562 76.019531 C 35.023438 78.484375 33.253906 80.992188 31.546875 83.546875 C 29.84375 86.097656 28.199219 88.6875 26.621094 91.320312 C 25.042969 93.953125 23.527344 96.625 22.078125 99.328125 C 20.632812 102.035156 19.25 104.777344 17.9375 107.550781 C 16.621094 110.324219 15.375 113.128906 14.199219 115.964844 C 13.023438 118.800781 11.917969 121.660156 10.882812 124.550781 C 9.84375 127.441406 8.878906 130.355469 7.988281 133.289062 C 7.09375 136.226562 6.273438 139.183594 5.523438 142.160156 C 4.777344 145.136719 4.101562 148.132812 3.5 151.140625 C 2.898438 154.152344 2.371094 157.175781 1.917969 160.210938 C 1.464844 163.246094 1.085938 166.292969 0.78125 169.34375 C 0.480469 172.398438 0.25 175.460938 0.0976562 178.527344 C -0.0585938 181.589844 -0.136719 184.660156 -0.140625 187.726562 C 10.167969 436.625 364.867188 436.550781 375.140625 187.726562 C 375.136719 184.65625 375.058594 181.589844 374.902344 178.523438 C 374.75 175.457031 374.519531 172.398438 374.21875 169.34375 C 373.914062 166.289062 373.535156 163.246094 373.082031 160.207031 C 372.628906 157.171875 372.101562 154.148438 371.5 151.140625 C 370.898438 148.128906 370.222656 145.136719 369.476562 142.160156 C 368.726562 139.183594 367.90625 136.226562 367.011719 133.289062 C 366.117188 130.351562 365.15625 127.441406 364.117188 124.550781 C 363.082031 121.660156 361.976562 118.796875 360.800781 115.964844 C 359.625 113.128906 358.378906 110.324219 357.0625 107.550781 C 355.75 104.773438 354.367188 102.035156 352.921875 99.328125 C 351.472656 96.621094 349.957031 93.953125 348.378906 91.320312 C 346.800781 88.6875 345.15625 86.097656 343.449219 83.542969 C 341.746094 80.992188 339.976562 78.484375 338.148438 76.019531 C 336.320312 73.554688 334.429688 71.136719 332.480469 68.761719 C 330.535156 66.390625 328.527344 64.066406 326.46875 61.792969 C 324.40625 59.519531 322.289062 57.296875 320.117188 55.125 C 317.949219 52.957031 315.726562 50.839844 313.449219 48.777344 C 311.175781 46.71875 308.851562 44.710938 306.480469 42.765625 C 304.105469 40.816406 301.6875 38.929688 299.222656 37.101562 C 296.757812 35.269531 294.25 33.503906 291.695312 31.796875 C 289.144531 30.089844 286.550781 28.449219 283.917969 26.871094 C 281.285156 25.292969 278.617188 23.777344 275.910156 22.328125 C 273.203125 20.882812 270.460938 19.5 267.6875 18.1875 C 264.914062 16.871094 262.109375 15.628906 259.273438 14.453125 C 256.4375 13.273438 253.574219 12.167969 250.683594 11.132812 C 247.796875 10.097656 244.882812 9.132812 241.945312 8.238281 C 239.007812 7.347656 236.050781 6.527344 233.074219 5.777344 C 230.097656 5.03125 227.101562 4.355469 224.089844 3.753906 C 221.082031 3.152344 218.058594 2.625 215.023438 2.171875 C 211.984375 1.71875 208.941406 1.339844 205.886719 1.035156 C 202.832031 0.730469 199.769531 0.503906 196.703125 0.347656 C 193.636719 0.195312 190.570312 0.117188 187.5 0.113281 Z M 81.121094 104.949219 L 293.878906 104.949219 C 294.335938 104.949219 294.777344 105.019531 295.210938 105.15625 C 295.640625 105.296875 296.042969 105.496094 296.414062 105.757812 C 296.78125 106.023438 297.101562 106.335938 297.375 106.699219 C 297.648438 107.0625 297.859375 107.457031 298.007812 107.886719 C 298.15625 108.316406 298.234375 108.753906 298.246094 109.210938 C 298.257812 109.664062 298.199219 110.109375 298.070312 110.542969 C 297.945312 110.976562 297.753906 111.382812 297.5 111.761719 C 297.246094 112.136719 296.9375 112.464844 296.582031 112.746094 L 191.167969 195.769531 C 190.640625 196.171875 190.0625 196.480469 189.433594 196.691406 C 188.808594 196.90625 188.164062 197.011719 187.5 197.011719 C 186.835938 197.011719 186.191406 196.90625 185.5625 196.691406 C 184.9375 196.480469 184.359375 196.171875 183.832031 195.769531 L 78.417969 112.746094 C 78.0625 112.464844 77.753906 112.136719 77.5 111.761719 C 77.246094 111.382812 77.054688 110.976562 76.929688 110.542969 C 76.800781 110.109375 76.742188 109.664062 76.753906 109.210938 C 76.765625 108.753906 76.84375 108.316406 76.992188 107.886719 C 77.140625 107.457031 77.351562 107.0625 77.625 106.699219 C 77.894531 106.335938 78.21875 106.023438 78.585938 105.757812 C 78.957031 105.496094 79.359375 105.296875 79.789062 105.15625 C 80.222656 105.019531 80.664062 104.949219 81.121094 104.949219 Z M 317.597656 260.03125 C 317.597656 260.722656 317.53125 261.402344 317.394531 262.078125 C 317.261719 262.75 317.0625 263.40625 316.800781 264.042969 C 316.539062 264.675781 316.214844 265.28125 315.832031 265.851562 C 315.449219 266.421875 315.015625 266.953125 314.53125 267.4375 C 314.042969 267.925781 313.515625 268.359375 312.941406 268.742188 C 312.371094 269.125 311.765625 269.445312 311.132812 269.710938 C 310.496094 269.972656 309.839844 270.171875 309.167969 270.304688 C 308.492188 270.441406 307.8125 270.507812 307.121094 270.507812 L 67.878906 270.507812 C 67.1875 270.507812 66.507812 270.441406 65.832031 270.304688 C 65.160156 270.171875 64.503906 269.972656 63.867188 269.710938 C 63.234375 269.445312 62.628906 269.125 62.058594 268.742188 C 61.484375 268.359375 60.957031 267.925781 60.46875 267.4375 C 59.984375 266.953125 59.550781 266.421875 59.167969 265.851562 C 58.785156 265.28125 58.460938 264.675781 58.199219 264.042969 C 57.9375 263.40625 57.738281 262.75 57.601562 262.078125 C 57.46875 261.402344 57.402344 260.722656 57.402344 260.03125 L 57.402344 120.210938 C 57.402344 119.375 57.625 118.601562 58.066406 117.894531 C 58.511719 117.1875 59.109375 116.648438 59.863281 116.285156 C 60.613281 115.917969 61.40625 115.78125 62.238281 115.871094 C 63.070312 115.960938 63.8125 116.265625 64.46875 116.78125 L 176.5 204.992188 C 177.273438 205.621094 178.09375 206.175781 178.960938 206.664062 C 179.824219 207.148438 180.726562 207.558594 181.664062 207.890625 C 182.601562 208.222656 183.558594 208.472656 184.539062 208.644531 C 185.519531 208.8125 186.507812 208.894531 187.5 208.894531 C 188.496094 208.894531 189.480469 208.8125 190.460938 208.644531 C 191.441406 208.472656 192.398438 208.222656 193.335938 207.890625 C 194.273438 207.558594 195.175781 207.148438 196.042969 206.664062 C 196.910156 206.175781 197.726562 205.621094 198.5 204.992188 L 310.53125 116.78125 C 311.1875 116.265625 311.929688 115.960938 312.761719 115.871094 C 313.59375 115.78125 314.386719 115.917969 315.136719 116.285156 C 315.890625 116.648438 316.488281 117.1875 316.933594 117.894531 C 317.375 118.601562 317.597656 119.375 317.597656 120.210938 Z M 317.597656 260.03125 " fill-opacity="1" fill-rule="nonzero"/></g></svg>