<svg xmlns="http://www.w3.org/2000/svg" xmlns:xlink="http://www.w3.org/1999/xlink" width="500" zoomAndPan="magnify" viewBox="0 0 375 374.999991" height="500" preserveAspectRatio="xMidYMid meet" version="1.0"><defs><clipPath id="2f77039688"><path d="M 25.765625 25.765625 L 349.015625 25.765625 L 349.015625 349.015625 L 25.765625 349.015625 Z M 25.765625 25.765625 " clip-rule="nonzero"/></clipPath></defs><g clip-path="url(#2f77039688)"><path fill="#ffffff" d="M 349.015625 187.390625 C 349.015625 190.039062 348.953125 192.679688 348.824219 195.324219 C 348.691406 197.964844 348.5 200.601562 348.238281 203.234375 C 347.980469 205.867188 347.65625 208.492188 347.269531 211.109375 C 346.878906 213.722656 346.429688 216.328125 345.910156 218.925781 C 345.394531 221.519531 344.816406 224.097656 344.171875 226.664062 C 343.53125 229.230469 342.824219 231.777344 342.058594 234.308594 C 341.289062 236.839844 340.460938 239.351562 339.570312 241.84375 C 338.679688 244.332031 337.726562 246.800781 336.714844 249.242188 C 335.703125 251.6875 334.628906 254.105469 333.5 256.496094 C 332.367188 258.886719 331.179688 261.25 329.933594 263.582031 C 328.6875 265.914062 327.382812 268.214844 326.023438 270.484375 C 324.664062 272.753906 323.25 274.988281 321.777344 277.1875 C 320.308594 279.386719 318.785156 281.546875 317.210938 283.671875 C 315.636719 285.796875 314.007812 287.882812 312.332031 289.925781 C 310.652344 291.972656 308.925781 293.972656 307.148438 295.933594 C 305.371094 297.894531 303.550781 299.808594 301.679688 301.679688 C 299.808594 303.550781 297.894531 305.371094 295.933594 307.148438 C 293.972656 308.925781 291.972656 310.652344 289.925781 312.332031 C 287.882812 314.007812 285.796875 315.636719 283.671875 317.210938 C 281.546875 318.785156 279.386719 320.308594 277.1875 321.777344 C 274.988281 323.25 272.753906 324.664062 270.484375 326.023438 C 268.214844 327.382812 265.914062 328.6875 263.582031 329.933594 C 261.25 331.179688 258.886719 332.367188 256.496094 333.5 C 254.105469 334.628906 251.6875 335.703125 249.242188 336.714844 C 246.800781 337.726562 244.332031 338.679688 241.84375 339.570312 C 239.351562 340.460938 236.839844 341.289062 234.308594 342.058594 C 231.777344 342.824219 229.230469 343.53125 226.664062 344.171875 C 224.097656 344.816406 221.519531 345.394531 218.925781 345.910156 C 216.328125 346.429688 213.722656 346.878906 211.109375 347.269531 C 208.492188 347.65625 205.867188 347.980469 203.234375 348.238281 C 200.601562 348.5 197.964844 348.691406 195.324219 348.824219 C 192.679688 348.953125 190.039062 349.015625 187.390625 349.015625 C 184.746094 349.015625 182.105469 348.953125 179.460938 348.824219 C 176.820312 348.691406 174.183594 348.5 171.550781 348.238281 C 168.917969 347.980469 166.292969 347.65625 163.675781 347.269531 C 161.0625 346.878906 158.457031 346.429688 155.859375 345.910156 C 153.265625 345.394531 150.6875 344.816406 148.121094 344.171875 C 145.554688 343.53125 143.007812 342.824219 140.476562 342.058594 C 137.945312 341.289062 135.433594 340.460938 132.941406 339.570312 C 130.453125 338.679688 127.984375 337.726562 125.542969 336.714844 C 123.097656 335.703125 120.679688 334.628906 118.289062 333.5 C 115.898438 332.367188 113.535156 331.179688 111.203125 329.933594 C 108.871094 328.6875 106.570312 327.382812 104.300781 326.023438 C 102.03125 324.664062 99.796875 323.25 97.597656 321.777344 C 95.398438 320.308594 93.238281 318.785156 91.113281 317.210938 C 88.988281 315.636719 86.902344 314.007812 84.859375 312.332031 C 82.8125 310.652344 80.8125 308.925781 78.851562 307.148438 C 76.890625 305.371094 74.976562 303.550781 73.105469 301.679688 C 71.234375 299.808594 69.414062 297.894531 67.636719 295.933594 C 65.859375 293.972656 64.132812 291.972656 62.453125 289.925781 C 60.777344 287.882812 59.148438 285.796875 57.574219 283.671875 C 56 281.546875 54.476562 279.386719 53.007812 277.1875 C 51.535156 274.988281 50.121094 272.753906 48.761719 270.484375 C 47.402344 268.214844 46.097656 265.914062 44.851562 263.582031 C 43.605469 261.25 42.417969 258.886719 41.285156 256.496094 C 40.15625 254.105469 39.082031 251.6875 38.070312 249.242188 C 37.058594 246.800781 36.105469 244.332031 35.214844 241.84375 C 34.324219 239.351562 33.496094 236.839844 32.726562 234.308594 C 31.960938 231.777344 31.253906 229.230469 30.609375 226.664062 C 29.96875 224.097656 29.390625 221.519531 28.875 218.925781 C 28.355469 216.328125 27.90625 213.722656 27.515625 211.109375 C 27.128906 208.492188 26.804688 205.867188 26.546875 203.234375 C 26.285156 200.601562 26.09375 197.964844 25.960938 195.324219 C 25.832031 192.679688 25.765625 190.039062 25.765625 187.390625 C 25.765625 184.746094 25.832031 182.105469 25.960938 179.460938 C 26.09375 176.820312 26.285156 174.183594 26.546875 171.550781 C 26.804688 168.917969 27.128906 166.292969 27.515625 163.675781 C 27.90625 161.0625 28.355469 158.457031 28.875 155.859375 C 29.390625 153.265625 29.96875 150.6875 30.609375 148.121094 C 31.253906 145.554688 31.960938 143.007812 32.726562 140.476562 C 33.496094 137.945312 34.324219 135.433594 35.214844 132.941406 C 36.105469 130.453125 37.058594 127.984375 38.070312 125.542969 C 39.082031 123.097656 40.15625 120.679688 41.285156 118.289062 C 42.417969 115.898438 43.605469 113.535156 44.851562 111.203125 C 46.097656 108.871094 47.402344 106.570312 48.761719 104.300781 C 50.121094 102.03125 51.535156 99.796875 53.007812 97.597656 C 54.476562 95.398438 56 93.238281 57.574219 91.113281 C 59.148438 88.988281 60.777344 86.902344 62.453125 84.859375 C 64.132812 82.8125 65.859375 80.8125 67.636719 78.851562 C 69.414062 76.890625 71.234375 74.976562 73.105469 73.105469 C 74.976562 71.234375 76.890625 69.414062 78.851562 67.636719 C 80.8125 65.859375 82.8125 64.132812 84.859375 62.453125 C 86.902344 60.777344 88.988281 59.148438 91.113281 57.574219 C 93.238281 56 95.398438 54.476562 97.597656 53.007812 C 99.796875 51.535156 102.03125 50.121094 104.300781 48.761719 C 106.570312 47.402344 108.871094 46.097656 111.203125 44.851562 C 113.535156 43.605469 115.898438 42.417969 118.289062 41.285156 C 120.679688 40.15625 123.097656 39.082031 125.542969 38.070312 C 127.984375 37.058594 130.453125 36.105469 132.941406 35.214844 C 135.433594 34.324219 137.945312 33.496094 140.476562 32.726562 C 143.007812 31.960938 145.554688 31.253906 148.121094 30.609375 C 150.6875 29.96875 153.265625 29.390625 155.859375 28.875 C 158.457031 28.355469 161.0625 27.90625 163.675781 27.515625 C 166.292969 27.128906 168.917969 26.804688 171.550781 26.546875 C 174.183594 26.285156 176.820312 26.09375 179.460938 25.960938 C 182.105469 25.832031 184.746094 25.765625 187.390625 25.765625 C 190.039062 25.765625 192.679688 25.832031 195.324219 25.960938 C 197.964844 26.09375 200.601562 26.285156 203.234375 26.546875 C 205.867188 26.804688 208.492188 27.128906 211.109375 27.515625 C 213.722656 27.90625 216.328125 28.355469 218.925781 28.875 C 221.519531 29.390625 224.097656 29.96875 226.664062 30.609375 C 229.230469 31.253906 231.777344 31.960938 234.308594 32.726562 C 236.839844 33.496094 239.351562 34.324219 241.84375 35.214844 C 244.332031 36.105469 246.800781 37.058594 249.242188 38.070312 C 251.6875 39.082031 254.105469 40.15625 256.496094 41.285156 C 258.886719 42.417969 261.25 43.605469 263.582031 44.851562 C 265.914062 46.097656 268.214844 47.402344 270.484375 48.761719 C 272.753906 50.121094 274.988281 51.535156 277.1875 53.007812 C 279.386719 54.476562 281.546875 56 283.671875 57.574219 C 285.796875 59.148438 287.882812 60.777344 289.925781 62.453125 C 291.972656 64.132812 293.972656 65.859375 295.933594 67.636719 C 297.894531 69.414062 299.808594 71.234375 301.679688 73.105469 C 303.550781 74.976562 305.371094 76.890625 307.148438 78.851562 C 308.925781 80.8125 310.652344 82.8125 312.332031 84.859375 C 314.007812 86.902344 315.636719 88.988281 317.210938 91.113281 C 318.785156 93.238281 320.308594 95.398438 321.777344 97.597656 C 323.25 99.796875 324.664062 102.03125 326.023438 104.300781 C 327.382812 106.570312 328.6875 108.871094 329.933594 111.203125 C 331.179688 113.535156 332.367188 115.898438 333.5 118.289062 C 334.628906 120.679688 335.703125 123.097656 336.714844 125.542969 C 337.726562 127.984375 338.679688 130.453125 339.570312 132.941406 C 340.460938 135.433594 341.289062 137.945312 342.058594 140.476562 C 342.824219 143.007812 343.53125 145.554688 344.175781 148.121094 C 344.816406 150.6875 345.394531 153.265625 345.910156 155.859375 C 346.429688 158.457031 346.878906 161.0625 347.269531 163.675781 C 347.65625 166.292969 347.980469 168.917969 348.238281 171.550781 C 348.5 174.183594 348.691406 176.820312 348.824219 179.460938 C 348.953125 182.105469 349.015625 184.746094 349.015625 187.390625 Z M 349.015625 187.390625 " fill-opacity="1" fill-rule="nonzero"/></g><path fill="#ff8c00" d="M 187.5 0 C 83.929688 0 0 83.929688 0 187.5 C 0 291.070312 83.929688 375 187.5 375 C 291.070312 375 375 291.070312 375 187.5 C 374.835938 83.929688 290.910156 0 187.5 0 Z M 132.46875 287.335938 L 88.472656 287.335938 L 88.472656 145.453125 L 132.46875 145.453125 Z M 110.550781 126.625 C 96.429688 126.625 84.902344 115.097656 84.902344 100.972656 C 84.902344 86.851562 96.429688 75.324219 110.550781 75.324219 C 124.675781 75.324219 136.203125 86.851562 136.203125 100.972656 C 136.203125 115.097656 124.675781 126.625 110.550781 126.625 Z M 297.726562 287.335938 L 253.734375 287.335938 L 253.734375 216.394531 C 253.734375 206.332031 253.734375 181.332031 231.332031 181.332031 C 205.84375 181.332031 204.222656 207.144531 204.222656 207.144531 L 204.222656 287.335938 L 160.390625 287.335938 L 160.390625 145.453125 L 204.382812 145.453125 L 204.382812 164.933594 C 214.773438 143.832031 236.203125 142.207031 250.164062 142.207031 C 266.070312 142.207031 280.355469 148.375 288.472656 162.011719 C 295.453125 173.539062 297.726562 190.257812 297.726562 216.394531 Z M 297.726562 287.335938 " fill-opacity="1" fill-rule="nonzero"/></svg>