<svg xmlns="http://www.w3.org/2000/svg" xmlns:xlink="http://www.w3.org/1999/xlink" width="64" zoomAndPan="magnify" viewBox="0 0 48 41.25" height="55" preserveAspectRatio="xMidYMid meet" version="1.0"><defs><clipPath id="3aaf0d378b"><path d="M 0.429688 0 L 47.570312 0 L 47.570312 40.511719 L 0.429688 40.511719 Z M 0.429688 0 " clip-rule="nonzero"/></clipPath></defs><path fill="#f78e36" d="M 46.734375 7.292969 L 20.753906 7.292969 L 14.257812 0.808594 L 1.265625 0.808594 L 1.265625 39.703125 L 46.734375 39.703125 Z M 46.734375 7.292969 " fill-opacity="1" fill-rule="evenodd"/><path fill="#ad5b17" d="M 17.503906 4.050781 L 46.734375 4.050781 L 46.734375 7.292969 L 20.753906 7.292969 L 17.503906 4.050781 " fill-opacity="1" fill-rule="evenodd"/><path fill="#ffffff" d="M 24 35.382812 C 23.21875 35.382812 22.445312 35.304688 21.675781 35.152344 C 20.910156 35 20.164062 34.777344 19.441406 34.476562 C 18.722656 34.179688 18.035156 33.8125 17.382812 33.378906 C 16.734375 32.945312 16.132812 32.453125 15.578125 31.902344 C 15.027344 31.347656 14.535156 30.75 14.097656 30.101562 C 13.664062 29.453125 13.296875 28.765625 13 28.046875 C 12.699219 27.324219 12.472656 26.582031 12.320312 25.816406 C 12.167969 25.050781 12.09375 24.277344 12.09375 23.496094 C 12.09375 22.71875 12.167969 21.945312 12.320312 21.179688 C 12.472656 20.414062 12.699219 19.671875 13 18.949219 C 13.296875 18.230469 13.664062 17.542969 14.097656 16.894531 C 14.535156 16.246094 15.027344 15.644531 15.578125 15.09375 C 16.132812 14.542969 16.734375 14.050781 17.382812 13.617188 C 18.035156 13.183594 18.722656 12.816406 19.441406 12.519531 C 20.164062 12.21875 20.910156 11.996094 21.675781 11.84375 C 22.445312 11.691406 23.21875 11.613281 24 11.613281 C 24.78125 11.613281 25.554688 11.691406 26.324219 11.84375 C 27.089844 11.996094 27.835938 12.21875 28.558594 12.519531 C 29.277344 12.816406 29.964844 13.183594 30.617188 13.617188 C 31.265625 14.050781 31.867188 14.542969 32.421875 15.09375 C 32.972656 15.644531 33.464844 16.246094 33.902344 16.894531 C 34.335938 17.542969 34.703125 18.230469 35 18.949219 C 35.300781 19.671875 35.527344 20.414062 35.679688 21.179688 C 35.832031 21.945312 35.90625 22.71875 35.90625 23.496094 C 35.90625 24.277344 35.832031 25.050781 35.679688 25.816406 C 35.523438 26.582031 35.300781 27.324219 35 28.042969 C 34.699219 28.765625 34.332031 29.449219 33.898438 30.097656 C 33.464844 30.746094 32.972656 31.347656 32.417969 31.898438 C 31.867188 32.453125 31.265625 32.945312 30.613281 33.378906 C 29.964844 33.8125 29.277344 34.175781 28.554688 34.476562 C 27.832031 34.773438 27.089844 35 26.324219 35.152344 C 25.554688 35.304688 24.78125 35.382812 24 35.382812 " fill-opacity="1" fill-rule="evenodd"/><path fill="#000000" d="M 23.855469 12.425781 C 23.128906 12.433594 22.414062 12.511719 21.703125 12.660156 C 20.992188 12.8125 20.300781 13.027344 19.636719 13.3125 C 18.96875 13.597656 18.332031 13.945312 17.734375 14.351562 C 17.132812 14.761719 16.582031 15.222656 16.070312 15.742188 C 15.5625 16.257812 15.109375 16.820312 14.710938 17.425781 C 14.3125 18.03125 13.976562 18.667969 13.707031 19.339844 C 13.433594 20.011719 13.230469 20.703125 13.09375 21.414062 C 12.957031 22.125 12.890625 22.84375 12.894531 23.570312 C 12.898438 24.292969 12.972656 25.011719 13.121094 25.722656 C 13.265625 26.429688 13.480469 27.121094 13.761719 27.789062 C 14.042969 28.457031 14.386719 29.089844 14.792969 29.691406 C 15.199219 30.289062 15.65625 30.847656 16.171875 31.355469 C 16.6875 31.867188 17.25 32.324219 17.851562 32.722656 C 18.457031 33.125 19.097656 33.460938 19.765625 33.738281 C 20.4375 34.015625 21.128906 34.222656 21.84375 34.363281 C 22.554688 34.503906 23.273438 34.574219 24 34.570312 L 24.144531 34.570312 C 24.871094 34.566406 25.59375 34.492188 26.308594 34.34375 C 27.019531 34.199219 27.714844 33.984375 28.382812 33.703125 C 29.054688 33.417969 29.691406 33.074219 30.296875 32.664062 C 30.898438 32.257812 31.457031 31.796875 31.96875 31.277344 C 32.480469 30.761719 32.9375 30.199219 33.335938 29.589844 C 33.738281 28.984375 34.078125 28.34375 34.351562 27.667969 C 34.625 26.996094 34.832031 26.300781 34.96875 25.585938 C 35.105469 24.875 35.171875 24.152344 35.167969 23.425781 C 35.164062 22.699219 35.085938 21.980469 34.941406 21.265625 C 34.792969 20.554688 34.578125 19.863281 34.296875 19.195312 C 34.011719 18.523438 33.667969 17.886719 33.257812 17.285156 C 32.847656 16.683594 32.386719 16.128906 31.867188 15.617188 C 31.347656 15.105469 30.785156 14.648438 30.175781 14.25 C 29.566406 13.851562 28.925781 13.511719 28.25 13.238281 C 27.578125 12.964844 26.882812 12.761719 26.167969 12.621094 C 25.449219 12.484375 24.730469 12.417969 24 12.425781 Z M 23.675781 36.1875 L 24 36.1875 C 24.554688 36.1875 25.105469 36.152344 25.652344 36.078125 C 26.203125 36.007812 26.742188 35.902344 27.277344 35.757812 C 27.8125 35.617188 28.335938 35.4375 28.847656 35.230469 C 29.359375 35.019531 29.851562 34.773438 30.332031 34.5 C 30.8125 34.226562 31.273438 33.917969 31.710938 33.585938 C 32.152344 33.25 32.566406 32.886719 32.960938 32.5 C 33.351562 32.109375 33.71875 31.695312 34.054688 31.257812 C 34.394531 30.820312 34.703125 30.363281 34.980469 29.886719 C 35.257812 29.410156 35.503906 28.917969 35.71875 28.410156 C 35.933594 27.898438 36.113281 27.378906 36.257812 26.847656 C 36.40625 26.3125 36.515625 25.773438 36.589844 25.226562 C 36.667969 24.679688 36.707031 24.128906 36.710938 23.578125 C 36.710938 23.027344 36.679688 22.476562 36.613281 21.925781 C 36.542969 21.378906 36.4375 20.839844 36.300781 20.304688 C 36.160156 19.769531 35.988281 19.246094 35.777344 18.734375 C 35.570312 18.222656 35.332031 17.726562 35.058594 17.246094 C 34.785156 16.765625 34.484375 16.304688 34.148438 15.863281 C 33.816406 15.425781 33.457031 15.007812 33.070312 14.613281 C 32.683594 14.21875 32.269531 13.851562 31.835938 13.511719 C 31.398438 13.171875 30.941406 12.859375 30.46875 12.578125 C 29.992188 12.296875 29.5 12.046875 28.988281 11.832031 C 28.480469 11.613281 27.960938 11.433594 27.425781 11.28125 C 26.894531 11.132812 26.355469 11.019531 25.804688 10.941406 C 25.257812 10.863281 24.707031 10.820312 24.15625 10.8125 C 23.601562 10.804688 23.050781 10.835938 22.5 10.898438 C 21.953125 10.964844 21.410156 11.066406 20.871094 11.199219 C 20.335938 11.335938 19.8125 11.507812 19.296875 11.710938 C 18.785156 11.914062 18.285156 12.152344 17.800781 12.421875 C 17.320312 12.691406 16.855469 12.988281 16.410156 13.316406 C 15.96875 13.648438 15.546875 14.003906 15.148438 14.390625 C 14.75 14.773438 14.382812 15.179688 14.039062 15.613281 C 13.695312 16.046875 13.378906 16.5 13.09375 16.972656 C 12.808594 17.445312 12.558594 17.9375 12.335938 18.441406 C 12.117188 18.949219 11.929688 19.46875 11.777344 20 C 11.625 20.527344 11.507812 21.066406 11.425781 21.613281 C 11.34375 22.160156 11.296875 22.707031 11.285156 23.261719 C 11.273438 23.8125 11.300781 24.363281 11.363281 24.910156 C 11.421875 25.460938 11.519531 26.003906 11.652344 26.539062 C 11.785156 27.074219 11.953125 27.601562 12.152344 28.113281 C 12.355469 28.628906 12.589844 29.128906 12.855469 29.613281 C 13.121094 30.097656 13.417969 30.558594 13.746094 31.003906 C 14.074219 31.449219 14.429688 31.871094 14.8125 32.273438 C 15.191406 32.671875 15.601562 33.042969 16.03125 33.390625 C 16.460938 33.734375 16.914062 34.050781 17.386719 34.339844 C 17.859375 34.625 18.347656 34.878906 18.855469 35.105469 C 19.359375 35.328125 19.878906 35.515625 20.410156 35.671875 C 20.941406 35.828125 21.480469 35.949219 22.027344 36.035156 C 22.574219 36.121094 23.121094 36.171875 23.675781 36.183594 Z M 23.675781 36.1875 " fill-opacity="1" fill-rule="evenodd"/><path fill="#000000" d="M 19.5625 19.414062 L 15.699219 23.269531 C 15.542969 23.425781 15.464844 23.617188 15.464844 23.839844 C 15.464844 24.0625 15.542969 24.253906 15.699219 24.414062 L 19.5625 28.269531 C 19.722656 28.421875 19.914062 28.496094 20.136719 28.496094 C 20.355469 28.492188 20.546875 28.414062 20.703125 28.257812 C 20.859375 28.101562 20.9375 27.914062 20.941406 27.691406 C 20.941406 27.472656 20.867188 27.28125 20.710938 27.121094 L 17.421875 23.839844 L 20.710938 20.558594 C 20.871094 20.402344 20.949219 20.210938 20.949219 19.984375 C 20.949219 19.761719 20.871094 19.570312 20.710938 19.414062 C 20.554688 19.253906 20.363281 19.175781 20.136719 19.175781 C 19.914062 19.175781 19.722656 19.253906 19.5625 19.414062 Z M 19.5625 19.414062 " fill-opacity="1" fill-rule="evenodd"/><path fill="#000000" d="M 27.289062 20.558594 L 30.578125 23.839844 L 27.289062 27.121094 C 27.125 27.28125 27.042969 27.472656 27.039062 27.699219 C 27.039062 27.925781 27.117188 28.117188 27.277344 28.277344 C 27.4375 28.4375 27.632812 28.515625 27.859375 28.515625 C 28.085938 28.511719 28.277344 28.429688 28.4375 28.269531 L 32.300781 24.414062 C 32.457031 24.253906 32.535156 24.0625 32.535156 23.839844 C 32.535156 23.617188 32.457031 23.425781 32.300781 23.269531 L 28.4375 19.414062 C 28.277344 19.253906 28.085938 19.175781 27.863281 19.175781 C 27.636719 19.175781 27.445312 19.253906 27.289062 19.414062 C 27.128906 19.570312 27.050781 19.761719 27.050781 19.984375 C 27.050781 20.210938 27.128906 20.402344 27.289062 20.558594 Z M 27.289062 20.558594 " fill-opacity="1" fill-rule="evenodd"/><path fill="#000000" d="M 24.507812 18.546875 L 21.917969 28.738281 C 21.863281 28.953125 21.894531 29.160156 22.007812 29.351562 C 22.125 29.542969 22.289062 29.667969 22.507812 29.722656 C 22.722656 29.777344 22.929688 29.746094 23.121094 29.632812 C 23.316406 29.519531 23.4375 29.351562 23.492188 29.136719 L 26.082031 18.941406 C 26.136719 18.726562 26.105469 18.523438 25.992188 18.328125 C 25.875 18.136719 25.710938 18.011719 25.492188 17.957031 C 25.277344 17.902344 25.070312 17.933594 24.878906 18.046875 C 24.683594 18.164062 24.5625 18.328125 24.507812 18.546875 Z M 24.507812 18.546875 " fill-opacity="1" fill-rule="evenodd"/><g clip-path="url(#3aaf0d378b)"><path fill="#000000" d="M 21.089844 6.480469 L 45.921875 6.480469 L 45.921875 4.863281 L 19.464844 4.863281 Z M 45.921875 8.101562 L 45.921875 38.894531 L 2.078125 38.894531 L 2.078125 1.621094 L 13.921875 1.621094 L 20.179688 7.867188 C 20.335938 8.023438 20.527344 8.101562 20.753906 8.101562 Z M 47.542969 39.703125 L 47.542969 4.050781 C 47.542969 3.828125 47.464844 3.636719 47.308594 3.476562 C 47.148438 3.320312 46.957031 3.242188 46.734375 3.242188 L 17.839844 3.242188 L 14.832031 0.238281 C 14.671875 0.078125 14.480469 0 14.257812 0 L 1.265625 0 C 1.042969 0 0.851562 0.078125 0.691406 0.238281 C 0.535156 0.394531 0.457031 0.585938 0.457031 0.808594 L 0.457031 39.703125 C 0.457031 39.925781 0.535156 40.117188 0.691406 40.277344 C 0.851562 40.433594 1.042969 40.511719 1.265625 40.511719 L 46.734375 40.511719 C 46.957031 40.511719 47.148438 40.433594 47.308594 40.277344 C 47.464844 40.117188 47.542969 39.925781 47.542969 39.703125 Z M 47.542969 39.703125 " fill-opacity="1" fill-rule="evenodd"/></g></svg>